# xmcd CD database file
#
# Track frame offsets:
#	150
#	14197
#	28135
#	41680
#	60138
#	75753
#	89117
#	101336
#	116501
#	134443
#
# Disc length: 1988 seconds
#
# Revision: 0
# Processed by: cddbd v1.5.2PL0 Copyright (c) Steve Scherf et al.
# Submitted via: CDex 1.79
#
DISCID=7a07c20a
DTITLE=Jon Russel - How I got Here
DYEAR=2005
DGENRE=Country
TTITLE0=How I Got Here
TTITLE1=A little Hell
TTITLE2=Familiar Grounmd
TTITLE3=Dead Soldiers
TTITLE4=Getting Over "U"
TTITLE5=Outside The Box
TTITLE6=Beer Truck
TTITLE7=Borrowed Wings
TTITLE8=California
TTITLE9=My World In You
EXTD=YEAR: 2005
EXTT0=
EXTT1=
EXTT2=
EXTT3=
EXTT4=
EXTT5=
EXTT6=
EXTT7=
EXTT8=
EXTT9=
PLAYORDER=
